<svg xmlns="http://www.w3.org/2000/svg" viewBox="0 0 197 30"><defs><style>.cls-1{fill:#f60}.cls-2,.cls-3{fill:#fff}.cls-3{fill-rule:evenodd}</style></defs><title>hotel</title><g id="Ebene_2" data-name="Ebene 2"><g id="Hotel_De"><path class="cls-1" d="M195.8 1.2a4.19 4.19 0 0 0-2.86-1.2h-68.58a11.13 11.13 0 0 0-6.91 2.88l-9.28 9.28a4.07 4.07 0 0 0 0 5.71l9.28 9.28a11 11 0 0 0 6.89 2.85H193a4.07 4.07 0 0 0 2.84-1.18A4.19 4.19 0 0 0 197 26V4a4.07 4.07 0 0 0-1.2-2.8zM115 18a3 3 0 1 1 3-3 3 3 0 0 1-3 3z"/><path class="cls-2" d="M5 4H0V0h5zm0 16H0V6h5zM8 11.24a12.72 12.72 0 0 1 .14-2.55 3.87 3.87 0 0 1 1.06-2 5.39 5.39 0 0 1 2.37-1.26A15.55 15.55 0 0 1 15.73 5h1.37a10.75 10.75 0 0 1 1.68.13 5.19 5.19 0 0 1 1.51.47 3.49 3.49 0 0 1 1.15.9 3 3 0 0 1 .66 1.42V0H27v20h-5v-2.82a3.54 3.54 0 0 1-.61 1.07 3.52 3.52 0 0 1-1 .92 5 5 0 0 1-1.54.59 8.64 8.64 0 0 1-2 .24h-1.12a15.56 15.56 0 0 1-4.16-.44A5.39 5.39 0 0 1 9.2 18.3a3.55 3.55 0 0 1-1.06-1.86A12.7 12.7 0 0 1 8 13.88zm5 2.14a6.69 6.69 0 0 0 .09 1.12 1.62 1.62 0 0 0 .37.82 1.83 1.83 0 0 0 .86.5 5.64 5.64 0 0 0 1.59.18h2.75a8 8 0 0 0 1.44-.12 2.52 2.52 0 0 0 1.05-.43 1.92 1.92 0 0 0 .63-.84 3.71 3.71 0 0 0 .22-1.38v-1.47a3.72 3.72 0 0 0-.22-1.38 1.93 1.93 0 0 0-.63-.84 2.54 2.54 0 0 0-1.05-.43A8 8 0 0 0 18.66 9h-2.75a5.61 5.61 0 0 0-1.59.18 1.85 1.85 0 0 0-.86.5 1.64 1.64 0 0 0-.37.82 6.69 6.69 0 0 0-.09 1.12z"/><path id="l" class="cls-2" d="M71 20h5V0h-5v20z"/><path id="a" class="cls-3" d="M50 14.7c0-3.89 5.52-3.7 6-3.7h4a4.87 4.87 0 0 1 2.91.84l.09.1v-1.62C63 8.78 62.73 8 60.81 8h-3.6c-1.61 0-2.5.31-2.5 1h-4.22c0-3 2.43-4 6.32-4h5.84C66.16 5 68 6.78 68 10.18V20h-5v-2l-.3.53c-.86 1.22-1.51 1.5-4.08 1.5h-3.54C51.94 20 50 19.28 50 15.92V14.7zM61.08 17c1.39 0 2-.47 2-1.37 0-1.55-.48-1.71-3.21-1.73h-2.4c-2 0-2.51.43-2.53 1.36 0 1.42.5 1.75 2.53 1.75h3.64z"/><path class="cls-3" d="M79 10.73C79 6 82.13 5 84.9 5h7.2c2.77 0 5.9 1 5.9 5.73v3.54C98 19 94.87 20 92.1 20h-7.2c-2.77 0-5.9-1-5.9-5.73v-3.54zm4.9 2.66a6.63 6.63 0 0 0 .1 1.14 1.63 1.63 0 0 0 .39.84 1.9 1.9 0 0 0 .89.51 5.93 5.93 0 0 0 1.64.18h2.73a8.33 8.33 0 0 0 1.49-.12 2.64 2.64 0 0 0 1.09-.43 1.94 1.94 0 0 0 .66-.85 3.7 3.7 0 0 0 .22-1.4v-1.51a3.71 3.71 0 0 0-.22-1.4 2 2 0 0 0-.66-.85 2.65 2.65 0 0 0-1.09-.43 8.52 8.52 0 0 0-1.5-.07h-2.73a5.93 5.93 0 0 0-1.64.18 1.91 1.91 0 0 0-.89.51 1.64 1.64 0 0 0-.39.84 6.64 6.64 0 0 0-.09 1.13zM43 16h5c0 3.25-1.56 4-6 4h-5c-3.5 0-7-.66-7-6.67V12c0-5.33 2.59-7 6.42-7h3.72C45.76 5 48 6.67 48 11.54V14H35v1c0 1.28 1.31 2 2.5 2H41c1.23 0 2-.14 2-1zm0-5.65V11h-8v-.65C35 8.81 35.61 8 37.53 8h2.94c1.92 0 2.53.81 2.53 2.35z"/><path id="Linie" class="cls-1" d="M0 26h98v4H0z"/><path class="cls-2" d="M129.61 8.85h2.61v4.55H137V8.85h2.61v11.87H137V15.6h-4.8v5.12h-2.61zM147.27 8.57c3.67 0 5.83 2.74 5.83 6.27S150.94 21 147.27 21s-5.83-2.74-5.83-6.17 2.15-6.26 5.83-6.26zm0 10.24c2.34 0 3.23-2 3.23-4s-.88-4.07-3.23-4.07-3.23 2-3.23 4.07.88 4 3.23 4zM157.25 11h-3.56V8.85h9.72V11h-3.56v9.67h-2.61zM164.7 8.85h8.88V11h-6.28v2.54h5.75v2h-5.75v2.91h6.4v2.19h-9zM175.6 8.85h2.61v9.67H184v2.19h-8.4z"/></g></g></svg>